<svg width="18" height="14" viewBox="0 0 18 14" fill="none" xmlns="http://www.w3.org/2000/svg">
<path d="M15.2378 1.24664C14.0905 0.718103 12.8602 0.3287 11.5739 0.105672C11.5505 0.101368 11.5271 0.112124 11.515 0.133639C11.3568 0.416187 11.1815 0.784794 11.0588 1.07452C9.6753 0.866554 8.29889 0.866554 6.94374 1.07452C6.82099 0.778354 6.63936 0.416187 6.48043 0.133639C6.46836 0.112842 6.44496 0.102085 6.42154 0.105672C5.13593 0.327987 3.90567 0.71739 2.7577 1.24664C2.74776 1.25094 2.73924 1.25812 2.73359 1.26744C0.400044 4.76779 -0.239213 8.18211 0.0743851 11.5541C0.075804 11.5706 0.0850274 11.5864 0.0977985 11.5964C1.63741 12.7316 3.12878 13.4208 4.59246 13.8776C4.61588 13.8848 4.6407 13.8762 4.65561 13.8568C5.00184 13.3821 5.31048 12.8815 5.57511 12.3551C5.59072 12.3243 5.57582 12.2877 5.5439 12.2755C5.05435 12.0891 4.5882 11.8617 4.1398 11.6036C4.10433 11.5828 4.10149 11.5319 4.13412 11.5075C4.22848 11.4365 4.32286 11.3626 4.41297 11.288C4.42927 11.2744 4.45198 11.2715 4.47115 11.2801C7.41696 12.6305 10.6062 12.6305 13.5172 11.2801C13.5364 11.2708 13.5591 11.2737 13.5761 11.2873C13.6662 11.3619 13.7606 11.4365 13.8557 11.5075C13.8883 11.5319 13.8862 11.5828 13.8507 11.6036C13.4023 11.8668 12.9361 12.0891 12.4459 12.2748C12.414 12.287 12.3998 12.3243 12.4154 12.3551C12.6857 12.8808 12.9943 13.3814 13.3342 13.8561C13.3484 13.8762 13.3739 13.8848 13.3973 13.8776C14.8681 13.4208 16.3595 12.7316 17.8991 11.5964C17.9126 11.5864 17.9211 11.5713 17.9225 11.5548C18.2978 7.65643 17.2939 4.27011 15.2612 1.26815C15.2562 1.25812 15.2477 1.25094 15.2378 1.24664ZM6.01502 9.50091C5.12812 9.50091 4.39735 8.68339 4.39735 7.67939C4.39735 6.67538 5.11395 5.85786 6.01502 5.85786C6.92315 5.85786 7.64686 6.68256 7.63266 7.67939C7.63266 8.68339 6.91606 9.50091 6.01502 9.50091ZM11.9961 9.50091C11.1092 9.50091 10.3784 8.68339 10.3784 7.67939C10.3784 6.67538 11.095 5.85786 11.9961 5.85786C12.9042 5.85786 13.6279 6.68256 13.6137 7.67939C13.6137 8.68339 12.9042 9.50091 11.9961 9.50091Z" fill="#212832"/>
</svg>
